#Comment line ignore any data following # character 
#Hierarchical Translation and Rotation (.htr) file 
[Header]	
#Header keywords are followed by a single value 
FileType HTR		#Single word string
DataType HTRS		#Translation followed by rotation and scale data
FileVersion 1		#integer
NumSegments 84		#integer
NumFrames 2		#integer
DataFrameRate 30		#integer, data frame rate in this file
EulerRotationOrder ZYX
CalibrationUnits mm
RotationUnits Degrees
GlobalAxisofGravity Y
BoneLengthAxis Y
ScaleFactor 1.00
[SegmentNames&Hierarchy]
#CHILD	PARENT
MASTER GLOBAL
root MASTER
chest root
L_mid_tent01 root
R_mid_tent01 root
spine01 root
Bip01_Neck chest
L_humerus chest
R_humerus chest
weapon_bone chest
Bip01_Head Bip01_Neck
eye_left_bone Bip01_Head
eye_right_bone Bip01_Head
L_forearm L_humerus
L_front_hand L_forearm
L_weapon_bone L_forearm
L_front_hand01_01 L_front_hand
L_front_hand02_01 L_front_hand
L_front_hand03_01 L_front_hand
L_front_hand01_02 L_front_hand01_01
L_front_hand02_02 L_front_hand02_01
L_front_hand03_02 L_front_hand03_01
R_forearm R_humerus
R_front_hand R_forearm
R_weapon_bone R_forearm
R_front_hand01_01 R_front_hand
R_front_hand02_01 R_front_hand
R_front_hand03_01 R_front_hand
R_front_hand01_02 R_front_hand01_01
R_front_hand02_02 R_front_hand02_01
R_front_hand03_02 R_front_hand03_01
null_rope01_connect L_mid_tent01
Rope1_Seg01 null_rope01_connect
Rope1_Seg02 Rope1_Seg01
Rope1_Seg03 Rope1_Seg02
Rope1_Seg04 Rope1_Seg03
Rope1_Seg05 Rope1_Seg04
Rope1_Seg06 Rope1_Seg05
Rope1_Seg07 Rope1_Seg06
Rope1_Seg09 Rope1_Seg07
L_mid_hand01 Rope1_Seg09
L_mid_hand02 Rope1_Seg09
L_mid_hand03 Rope1_Seg09
null_rope02_connect R_mid_tent01
Rope2_Seg01 null_rope02_connect
Rope2_Seg02 Rope2_Seg01
Rope2_Seg03 Rope2_Seg02
Rope2_Seg04 Rope2_Seg03
Rope2_Seg05 Rope2_Seg04
Rope2_Seg06 Rope2_Seg05
Rope2_Seg07 Rope2_Seg06
Rope2_Seg09 Rope2_Seg07
R_mid_hand01 Rope2_Seg09
R_mid_hand02 Rope2_Seg09
R_mid_hand03 Rope2_Seg09
spine02 spine01
spine03 spine02
pelvis spine03
null_rope03_connect pelvis
null_rope04_connect pelvis
Rope3_Seg01 null_rope03_connect
Rope3_Seg02 Rope3_Seg01
Rope3_Seg03 Rope3_Seg02
Rope3_Seg04 Rope3_Seg03
Rope3_Seg05 Rope3_Seg04
Rope3_Seg06 Rope3_Seg05
Rope3_Seg07 Rope3_Seg06
Rope3_Seg08 Rope3_Seg07
Rope3_Seg09 Rope3_Seg08
R_rear_hand01 Rope3_Seg09
R_rear_hand02 Rope3_Seg09
R_rear_hand03 Rope3_Seg09
Rope4_Seg01 null_rope04_connect
Rope4_Seg02 Rope4_Seg01
Rope4_Seg03 Rope4_Seg02
Rope4_Seg04 Rope4_Seg03
Rope4_Seg05 Rope4_Seg04
Rope4_Seg06 Rope4_Seg05
Rope4_Seg07 Rope4_Seg06
Rope4_Seg08 Rope4_Seg07
Rope4_Seg09 Rope4_Seg08
L_rear_hand01 Rope4_Seg09
L_rear_hand02 Rope4_Seg09
L_rear_hand03 Rope4_Seg09
[BasePosition]
#SegmentName Tx, Ty, Tz, Rx, Ry, Rz, BoneLength
MASTER 0.000000 0.000000 0.000000 -90.000000 0.000000 0.000000 10.000000 
root 0.000000 0.000000 0.000000 0.000000 0.000000 0.000000 10.000000 
chest 0.000000 0.000000 0.000000 0.000000 0.000000 0.000000 10.000000 
L_mid_tent01 0.000000 0.000000 0.000000 0.000000 0.000000 0.000000 10.000000 
R_mid_tent01 0.000000 0.000000 0.000000 0.000000 0.000000 0.000000 10.000000 
spine01 0.000000 0.000000 0.000000 0.000000 0.000000 0.000000 10.000000 
Bip01_Neck 0.000000 0.000000 0.000000 0.000000 0.000000 0.000000 10.000000 
L_humerus 0.000000 0.000000 0.000000 0.000000 0.000000 0.000000 10.000000 
R_humerus 0.000000 0.000000 0.000000 0.000000 0.000000 0.000000 10.000000 
weapon_bone 0.000000 0.000000 0.000000 0.000000 0.000000 0.000000 10.000000 
Bip01_Head 0.000000 0.000000 0.000000 0.000000 0.000000 0.000000 10.000000 
eye_left_bone 0.000000 0.000000 0.000000 0.000000 0.000000 0.000000 10.000000 
eye_right_bone 0.000000 0.000000 0.000000 0.000000 0.000000 0.000000 10.000000 
L_forearm 0.000000 0.000000 0.000000 0.000000 0.000000 0.000000 10.000000 
L_front_hand 0.000000 0.000000 0.000000 0.000000 0.000000 0.000000 10.000000 
L_weapon_bone 0.000000 0.000000 0.000000 0.000000 0.000000 0.000000 10.000000 
L_front_hand01_01 0.000000 0.000000 0.000000 0.000000 0.000000 0.000000 10.000000 
L_front_hand02_01 0.000000 0.000000 0.000000 0.000000 0.000000 0.000000 10.000000 
L_front_hand03_01 0.000000 0.000000 0.000000 0.000000 0.000000 0.000000 10.000000 
L_front_hand01_02 0.000000 0.000000 0.000000 0.000000 0.000000 0.000000 10.000000 
L_front_hand02_02 0.000000 0.000000 0.000000 0.000000 0.000000 0.000000 10.000000 
L_front_hand03_02 0.000000 0.000000 0.000000 0.000000 0.000000 0.000000 10.000000 
R_forearm 0.000000 0.000000 0.000000 0.000000 0.000000 0.000000 10.000000 
R_front_hand 0.000000 0.000000 0.000000 0.000000 0.000000 0.000000 10.000000 
R_weapon_bone 0.000000 0.000000 0.000000 0.000000 0.000000 0.000000 10.000000 
R_front_hand01_01 0.000000 0.000000 0.000000 0.000000 0.000000 0.000000 10.000000 
R_front_hand02_01 0.000000 0.000000 0.000000 0.000000 0.000000 0.000000 10.000000 
R_front_hand03_01 0.000000 0.000000 0.000000 0.000000 0.000000 0.000000 10.000000 
R_front_hand01_02 0.000000 0.000000 0.000000 0.000000 0.000000 0.000000 10.000000 
R_front_hand02_02 0.000000 0.000000 0.000000 0.000000 0.000000 0.000000 10.000000 
R_front_hand03_02 0.000000 0.000000 0.000000 0.000000 0.000000 0.000000 10.000000 
null_rope01_connect 0.000000 0.000000 0.000000 0.000000 0.000000 0.000000 10.000000 
Rope1_Seg01 0.000000 0.000000 0.000000 0.000000 0.000000 0.000000 10.000000 
Rope1_Seg02 0.000000 0.000000 0.000000 0.000000 0.000000 0.000000 10.000000 
Rope1_Seg03 0.000000 0.000000 0.000000 0.000000 0.000000 0.000000 10.000000 
Rope1_Seg04 0.000000 0.000000 0.000000 0.000000 0.000000 0.000000 10.000000 
Rope1_Seg05 0.000000 0.000000 0.000000 0.000000 0.000000 0.000000 10.000000 
Rope1_Seg06 0.000000 0.000000 0.000000 0.000000 0.000000 0.000000 10.000000 
Rope1_Seg07 0.000000 0.000000 0.000000 0.000000 0.000000 0.000000 10.000000 
Rope1_Seg09 0.000000 0.000000 0.000000 0.000000 0.000000 0.000000 10.000000 
L_mid_hand01 0.000000 0.000000 0.000000 0.000000 0.000000 0.000000 10.000000 
L_mid_hand02 0.000000 0.000000 0.000000 0.000000 0.000000 0.000000 10.000000 
L_mid_hand03 0.000000 0.000000 0.000000 0.000000 0.000000 0.000000 10.000000 
null_rope02_connect 0.000000 0.000000 0.000000 0.000000 0.000000 0.000000 10.000000 
Rope2_Seg01 0.000000 0.000000 0.000000 0.000000 0.000000 0.000000 10.000000 
Rope2_Seg02 0.000000 0.000000 0.000000 0.000000 0.000000 0.000000 10.000000 
Rope2_Seg03 0.000000 0.000000 0.000000 0.000000 0.000000 0.000000 10.000000 
Rope2_Seg04 0.000000 0.000000 0.000000 0.000000 0.000000 0.000000 10.000000 
Rope2_Seg05 0.000000 0.000000 0.000000 0.000000 0.000000 0.000000 10.000000 
Rope2_Seg06 0.000000 0.000000 0.000000 0.000000 0.000000 0.000000 10.000000 
Rope2_Seg07 0.000000 0.000000 0.000000 0.000000 0.000000 0.000000 10.000000 
Rope2_Seg09 0.000000 0.000000 0.000000 0.000000 0.000000 0.000000 10.000000 
R_mid_hand01 0.000000 0.000000 0.000000 0.000000 0.000000 0.000000 10.000000 
R_mid_hand02 0.000000 0.000000 0.000000 0.000000 0.000000 0.000000 10.000000 
R_mid_hand03 0.000000 0.000000 0.000000 0.000000 0.000000 0.000000 10.000000 
spine02 0.000000 0.000000 0.000000 0.000000 0.000000 0.000000 10.000000 
spine03 0.000000 0.000000 0.000000 0.000000 0.000000 0.000000 10.000000 
pelvis 0.000000 0.000000 0.000000 0.000000 0.000000 0.000000 10.000000 
null_rope03_connect 0.000000 0.000000 0.000000 0.000000 0.000000 0.000000 10.000000 
null_rope04_connect 0.000000 0.000000 0.000000 0.000000 0.000000 0.000000 10.000000 
Rope3_Seg01 0.000000 0.000000 0.000000 0.000000 0.000000 0.000000 10.000000 
Rope3_Seg02 0.000000 0.000000 0.000000 0.000000 0.000000 0.000000 10.000000 
Rope3_Seg03 0.000000 0.000000 0.000000 0.000000 0.000000 0.000000 10.000000 
Rope3_Seg04 0.000000 0.000000 0.000000 0.000000 0.000000 0.000000 10.000000 
Rope3_Seg05 0.000000 0.000000 0.000000 0.000000 0.000000 0.000000 10.000000 
Rope3_Seg06 0.000000 0.000000 0.000000 0.000000 0.000000 0.000000 10.000000 
Rope3_Seg07 0.000000 0.000000 0.000000 0.000000 0.000000 0.000000 10.000000 
Rope3_Seg08 0.000000 0.000000 0.000000 0.000000 0.000000 0.000000 10.000000 
Rope3_Seg09 0.000000 0.000000 0.000000 0.000000 0.000000 0.000000 10.000000 
R_rear_hand01 0.000000 0.000000 0.000000 0.000000 0.000000 0.000000 10.000000 
R_rear_hand02 0.000000 0.000000 0.000000 0.000000 0.000000 0.000000 10.000000 
R_rear_hand03 0.000000 0.000000 0.000000 0.000000 0.000000 0.000000 10.000000 
Rope4_Seg01 0.000000 0.000000 0.000000 0.000000 0.000000 0.000000 10.000000 
Rope4_Seg02 0.000000 0.000000 0.000000 0.000000 0.000000 0.000000 10.000000 
Rope4_Seg03 0.000000 0.000000 0.000000 0.000000 0.000000 0.000000 10.000000 
Rope4_Seg04 0.000000 0.000000 0.000000 0.000000 0.000000 0.000000 10.000000 
Rope4_Seg05 0.000000 0.000000 0.000000 0.000000 0.000000 0.000000 10.000000 
Rope4_Seg06 0.000000 0.000000 0.000000 0.000000 0.000000 0.000000 10.000000 
Rope4_Seg07 0.000000 0.000000 0.000000 0.000000 0.000000 0.000000 10.000000 
Rope4_Seg08 0.000000 0.000000 0.000000 0.000000 0.000000 0.000000 10.000000 
Rope4_Seg09 0.000000 0.000000 0.000000 0.000000 0.000000 0.000000 10.000000 
L_rear_hand01 0.000000 0.000000 0.000000 0.000000 0.000000 0.000000 10.000000 
L_rear_hand02 0.000000 0.000000 0.000000 0.000000 0.000000 0.000000 10.000000 
L_rear_hand03 0.000000 0.000000 0.000000 0.000000 0.000000 0.000000 10.000000 
#Beginning of Data. Separated by tabs
#Fr	Tx	Ty	Tz	Rx	Ry	Rz	SF
[MASTER]
10 0.000005 62.822109 0.000000 0.001660 0.001660 0.001660 62.822113
11 0.000005 62.822109 0.000000 0.001660 0.001660 0.001660 62.822113
[root]
10 -16.502295 -62.822117 1500.000000 -66.997772 -24.802864 -95.335983 1501.405640
11 -16.502295 -62.822117 1500.000000 -63.752480 -24.426115 -96.017311 1501.405640
[chest]
10 -84.512650 -34.090519 0.000000 8.913883 -11.206591 173.507401 91.129311
11 -84.512650 -34.090519 0.000000 10.717082 -12.802263 172.366364 91.129311
[L_mid_tent01]
10 27.299557 22.177452 -249.917984 0.057632 65.360672 49.417885 252.380859
11 27.299553 22.177456 -249.917984 3.986291 76.464340 55.805473 252.380859
[R_mid_tent01]
10 23.228794 24.509907 226.238495 -82.378159 -70.028473 -11.780580 228.744751
11 23.228794 24.509907 226.238495 -71.853172 -66.625381 -20.673264 228.744751
[spine01]
10 -0.361383 -0.195265 0.000000 0.240749 0.413383 13.086601 0.410763
11 -0.361383 -0.195265 0.000000 0.146350 0.403324 12.773735 0.410763
[Bip01_Neck]
10 165.484543 71.581718 0.000119 175.896118 1.177290 24.871183 180.302734
11 165.484543 71.581718 0.000119 175.896118 1.177290 24.871183 180.302734
[L_humerus]
10 -13.983130 -135.272980 -120.471481 -157.837006 78.438553 -71.024117 181.680161
11 -13.983130 -135.272980 -120.471481 -160.851715 78.667610 -73.356995 181.680161
[R_humerus]
10 -13.983309 -135.273102 125.287651 -148.082062 -65.053673 -115.369370 184.909012
11 -13.983309 -135.273102 125.287651 -146.895370 -64.892761 -115.900269 184.909012
[weapon_bone]
10 235.964890 -300.705902 0.000000 0.000000 -89.951546 -128.212341 382.234833
11 235.964890 -300.705902 0.000000 0.000000 -89.951546 -128.212341 382.234833
[Bip01_Head]
10 261.355865 108.959419 -2.864223 16.153646 5.843524 -62.456097 283.173523
11 261.355835 108.959427 -2.864222 18.337257 5.843249 -62.457592 283.173523
[eye_left_bone]
10 -24.626970 125.451866 -64.772606 0.000000 -90.000000 -99.840431 143.318359
11 -24.626970 125.451866 -64.772606 0.000000 -90.000000 -99.840431 143.318359
[eye_right_bone]
10 -24.626970 125.451866 64.327362 0.000000 -89.960434 80.159386 143.117676
11 -24.626970 125.451866 64.327362 0.000000 -89.960434 80.159386 143.117676
[L_forearm]
10 322.776093 0.000000 -0.000119 0.000382 0.002317 -71.271217 322.776093
11 322.776093 0.000000 -0.000119 0.000341 0.002323 -73.284615 322.776093
[L_front_hand]
10 241.149185 -0.042021 -3.300071 -179.463684 -2.205890 -5.050934 241.171753
11 241.149185 -0.042021 -3.300071 -179.422943 -2.194618 -6.156081 241.171753
[L_weapon_bone]
10 156.183838 0.000000 0.000000 0.002052 0.001139 31.932182 156.183838
11 156.183838 0.000000 0.000000 0.002014 0.001205 28.214151 156.183838
[L_front_hand01_01]
10 86.095154 20.947098 -0.655860 0.359650 -0.475454 0.737092 88.609184
11 86.095154 20.947098 -0.655860 0.328316 -0.501323 4.526764 88.609184
[L_front_hand02_01]
10 86.935165 -11.437475 24.513514 116.910385 -1.147524 -0.930214 91.046425
11 86.935165 -11.437475 24.513514 116.995949 -4.525030 -2.646374 91.046425
[L_front_hand03_01]
10 86.637497 -14.123976 -20.424902 -118.321060 0.052957 -2.697010 90.126129
11 86.637497 -14.123976 -20.424902 -118.372017 3.391129 -4.499137 90.126129
[L_front_hand01_02]
10 71.020905 -0.000179 0.000030 0.001239 0.001994 -26.271872 71.020905
11 71.020905 -0.000179 0.000030 0.001141 0.002051 -31.830994 71.020905
[L_front_hand02_02]
10 71.020927 -0.000119 0.000060 0.001239 0.001994 -26.271872 71.020927
11 71.020927 -0.000119 0.000060 0.001141 0.002051 -31.830994 71.020927
[L_front_hand03_02]
10 71.020905 -0.000060 0.000060 0.001239 0.001994 -26.271872 71.020905
11 71.020905 -0.000060 0.000060 0.001141 0.002051 -31.830994 71.020905
[R_forearm]
10 322.776428 -0.000060 0.000030 0.199861 -0.075179 -70.156693 322.776428
11 322.776428 -0.000060 0.000030 0.199702 -0.075600 -69.915146 322.776428
[R_front_hand]
10 238.847015 -0.006795 2.210259 -1.326909 1.107633 -38.799011 238.857239
11 238.847015 -0.006795 2.210259 -1.498721 0.862117 -48.803570 238.857239
[R_weapon_bone]
10 155.664093 0.002503 -0.000030 0.002781 0.002412 -135.471268 155.664078
11 155.664093 0.002503 -0.000030 0.002821 0.002365 -133.562164 155.664078
[R_front_hand01_01]
10 87.624611 14.231146 22.918642 -116.909676 -1.277413 1.103955 91.683487
11 87.624611 14.231146 22.918642 -117.004204 -4.654858 2.820840 91.683487
[R_front_hand02_01]
10 89.356956 14.367283 -19.491137 118.338341 0.458784 3.155606 92.579636
11 89.356956 14.367283 -19.491137 118.403336 3.790064 4.958123 92.579636
[R_front_hand03_01]
10 87.286232 -22.307278 -0.143439 -0.366657 -0.269006 -1.120177 90.091743
11 87.286232 -22.307278 -0.143439 -0.347257 -0.290441 -4.910071 90.091743
[R_front_hand01_02]
10 71.020905 0.000060 0.000119 0.001993 0.001239 26.270203 71.020905
11 71.020905 0.000060 0.000119 0.002051 0.001141 31.829317 71.020905
[R_front_hand02_02]
10 71.020844 -0.000030 -0.000119 0.001993 0.001239 26.270203 71.020836
11 71.020844 -0.000030 -0.000119 0.002051 0.001141 31.829317 71.020836
[R_front_hand03_02]
10 71.020905 0.000000 0.000030 0.001993 0.001239 26.270203 71.020905
11 71.020905 0.000000 0.000030 0.002051 0.001141 31.829317 71.020905
[null_rope01_connect]
10 328.732483 0.000000 -0.000238 -102.790779 -35.597630 158.769806 328.732483
11 328.732483 0.000000 -0.000238 -108.397125 -27.462532 157.670471 328.732483
[Rope1_Seg01]
10 0.000000 0.000000 0.000000 137.179260 29.716459 -159.435669 0.000000
11 0.000000 0.000000 0.000000 118.788879 15.901920 -160.358185 0.000000
[Rope1_Seg02]
10 139.999863 -0.000179 0.000000 26.619179 -42.159698 -6.116341 139.999863
11 139.999863 -0.000179 0.000000 41.531887 -35.016155 -24.411186 139.999863
[Rope1_Seg03]
10 139.999924 0.000060 -0.000060 1.740186 -19.870312 5.338322 139.999924
11 139.999924 0.000060 -0.000060 8.369637 -31.250275 -1.194867 139.999924
[Rope1_Seg04]
10 139.999924 -0.000060 -0.000119 -0.750757 -12.594331 5.505198 139.999924
11 139.999924 -0.000060 -0.000119 -0.225697 -14.493984 3.904865 139.999924
[Rope1_Seg05]
10 139.999832 0.000119 -0.000060 -3.839605 -17.810728 9.427699 139.999832
11 139.999832 0.000119 -0.000060 -3.269863 -17.630552 9.003204 139.999832
[Rope1_Seg06]
10 139.999954 0.000119 -0.000060 -5.516621 -14.519690 6.877264 139.999954
11 139.999954 0.000119 -0.000060 -5.646235 -16.122259 8.073303 139.999954
[Rope1_Seg07]
10 139.999985 0.000060 0.000000 -4.015803 -7.323170 2.579648 139.999985
11 139.999985 0.000060 0.000000 -3.962145 -7.547333 2.584255 139.999985
[Rope1_Seg09]
10 121.602913 0.000119 -0.000089 -89.793175 -1.359789 0.847147 121.602913
11 121.602913 0.000119 -0.000089 -89.793175 -1.359789 0.847147 121.602913
[L_mid_hand01]
10 103.859421 1.038730 8.195221 104.352036 0.341479 -0.444583 104.187431
11 103.859421 1.038730 8.195221 104.353477 -0.000248 -0.529904 104.187431
[L_mid_hand02]
10 105.572853 -4.139662 -10.864139 -135.608444 3.905687 -3.381056 106.211075
11 105.572853 -4.139662 -10.864139 -135.628891 4.147943 -3.635983 106.211075
[L_mid_hand03]
10 104.641464 17.579376 -3.913581 -18.761518 -0.324361 2.942912 106.179977
11 104.641464 17.579376 -3.913581 -18.765770 -0.214116 3.275741 106.179977
[null_rope02_connect]
10 328.732849 0.000179 -0.000119 -148.041519 -22.777235 -26.812740 328.732849
11 328.732849 0.000179 -0.000119 -147.706818 -30.198732 -30.489859 328.732849
[Rope2_Seg01]
10 -0.000067 0.000138 0.000114 62.381096 -56.593796 -82.909332 0.000192
11 -0.000066 0.000139 0.000110 62.450577 -57.331516 -83.050339 0.000189
[Rope2_Seg02]
10 139.999741 -0.000060 -0.000119 -1.355199 9.900537 7.993189 139.999756
11 139.999741 -0.000060 -0.000119 -1.205683 9.700686 7.982051 139.999756
[Rope2_Seg03]
10 140.000107 0.000030 0.000000 -4.197992 16.455149 14.655724 140.000107
11 140.000107 0.000030 0.000000 -3.528383 14.701530 13.173475 140.000107
[Rope2_Seg04]
10 139.999802 0.000000 -0.000060 -9.501870 19.641554 22.523685 139.999802
11 139.999802 0.000000 -0.000060 -7.649829 17.173126 19.096054 139.999802
[Rope2_Seg05]
10 139.999985 -0.000060 0.000119 -8.436960 8.898705 15.960727 139.999985
11 139.999985 -0.000060 0.000119 -7.672060 9.518665 14.983489 139.999985
[Rope2_Seg06]
10 139.999893 -0.000030 -0.000119 -5.327852 3.843599 10.309771 139.999893
11 139.999893 -0.000030 -0.000119 -4.785424 4.359684 8.849223 139.999893
[Rope2_Seg07]
10 139.999893 0.000060 -0.000060 -4.322165 2.477820 9.150593 139.999893
11 139.999893 0.000060 -0.000060 -3.831794 3.170920 7.127875 139.999893
[Rope2_Seg09]
10 121.338966 0.000089 -0.000060 33.793236 -1.359788 -0.847141 121.338966
11 121.338966 0.000089 -0.000060 33.793236 -1.359788 -0.847141 121.338966
[R_mid_hand01]
10 104.680779 11.144459 -10.335981 -47.375107 3.181660 5.654842 105.778534
11 104.680779 11.144459 -10.335981 -47.336269 3.795512 6.220475 105.778534
[R_mid_hand02]
10 104.070427 2.443552 8.231699 75.620827 -2.540148 1.186644 104.424065
11 104.070427 2.443552 8.231699 75.611839 -3.350028 1.391578 104.424065
[R_mid_hand03]
10 106.028137 -11.221827 -5.996406 -164.395157 2.574564 -6.425120 106.788818
11 106.028137 -11.221827 -5.996406 -164.430145 2.798768 -7.230777 106.788818
[spine02]
10 129.756927 0.001550 0.000119 -0.153369 -4.129363 -5.728542 129.756927
11 129.756927 0.001550 0.000119 -0.136134 -4.106922 -5.964542 129.756927
[spine03]
10 78.756027 0.062408 -3.510361 1.405303 1.783634 6.155372 78.834244
11 78.790550 0.056425 -3.173250 1.521071 1.319143 7.934840 78.854446
[pelvis]
10 169.435242 0.051022 0.000000 109.526917 13.919112 5.715481 169.435257
11 169.435242 0.051022 0.000000 81.441727 12.593539 0.696886 169.435257
[null_rope03_connect]
10 -1.257226 -2.466202 137.391083 10.351615 41.233536 101.919281 137.418976
11 -1.257226 -2.466202 137.391083 8.567029 16.819479 98.769875 137.418976
[null_rope04_connect]
10 -1.259640 -2.480268 -137.844437 10.351615 41.233536 101.919281 137.872513
11 -1.259640 -2.480268 -137.844437 8.567029 16.819479 98.769875 137.872513
[Rope3_Seg01]
10 0.000000 0.000000 0.000000 -106.934479 -24.969576 -124.583389 0.000000
11 0.000000 0.000000 0.000000 -109.082047 -36.474934 -116.340965 0.000000
[Rope3_Seg02]
10 139.999924 -0.000119 0.000060 24.834063 36.033176 -5.045811 139.999924
11 139.999924 -0.000119 0.000060 8.179537 32.271751 -16.607529 139.999924
[Rope3_Seg03]
10 139.999924 -0.000119 0.000119 23.983702 30.166159 -13.826526 139.999924
11 139.999924 -0.000119 0.000119 8.213422 28.073259 -15.336993 139.999924
[Rope3_Seg04]
10 139.999924 0.000119 0.000000 7.005602 4.796125 -15.855777 139.999924
11 139.999924 0.000119 0.000000 3.249620 8.079309 -14.300768 139.999924
[Rope3_Seg05]
10 139.999924 -0.000238 0.000060 2.912219 -6.963819 -20.781235 139.999924
11 139.999924 -0.000238 0.000060 0.921191 -0.809673 -21.567673 139.999924
[Rope3_Seg06]
10 139.999893 -0.000119 -0.000060 0.958308 -5.283495 -14.278947 139.999893
11 139.999893 -0.000119 -0.000060 -1.236944 -0.887291 -15.233107 139.999893
[Rope3_Seg07]
10 139.999771 0.000060 -0.000119 0.082144 -2.094482 -7.375232 139.999771
11 139.999771 0.000060 -0.000119 -1.427487 0.397632 -7.596158 139.999771
[Rope3_Seg08]
10 139.999985 -0.000060 0.000000 0.104376 -1.187254 -4.179679 139.999985
11 139.999985 -0.000060 0.000000 -0.866976 0.330379 -4.304738 139.999985
[Rope3_Seg09]
10 90.185997 -0.000179 -0.000060 89.793228 -1.359877 -0.847183 90.185997
11 90.185997 -0.000179 -0.000060 89.793228 -1.359877 -0.847183 90.185997
[R_rear_hand01]
10 103.366196 -6.073594 -10.757982 -164.449982 19.387613 -39.430145 104.101845
11 103.366196 -6.073594 -10.757982 -159.911102 14.619091 -24.012125 104.101845
[R_rear_hand02]
10 100.509819 12.039542 -7.992327 -31.145708 24.319061 37.292130 101.543350
11 100.509819 12.039542 -7.992327 -35.882572 15.724491 23.557304 101.543350
[R_rear_hand03]
10 101.539970 5.215704 5.435467 82.550941 -40.154560 8.684566 101.819031
11 101.539970 5.215704 5.435467 83.734200 -24.775511 6.498349 101.819031
[Rope4_Seg01]
10 -0.000012 -0.000067 -0.000114 62.218197 24.553553 -64.303513 0.000133
11 -0.000011 -0.000066 -0.000110 62.629845 33.638966 -76.754456 0.000129
[Rope4_Seg02]
10 139.999985 0.000060 0.000119 -1.229462 8.981142 6.397831 139.999985
11 139.999985 0.000060 0.000119 1.729867 10.219499 3.215771 139.999985
[Rope4_Seg03]
10 139.999924 0.000000 -0.000238 -7.094635 15.504584 12.034348 139.999924
11 139.999924 0.000000 -0.000238 7.285424 19.674408 5.839513 139.999924
[Rope4_Seg04]
10 139.999985 0.000000 0.000119 -110.413673 15.989661 24.636036 139.999985
11 139.999985 0.000000 0.000119 137.393051 29.251915 13.552936 139.999985
[Rope4_Seg05]
10 139.999802 -0.000060 -0.000119 -24.585358 -18.230736 5.661351 139.999802
11 139.999802 -0.000060 -0.000119 22.292715 -13.266629 -16.569221 139.999802
[Rope4_Seg06]
10 139.999924 0.000000 0.000060 -21.778439 -19.332569 11.358708 139.999924
11 139.999924 0.000000 0.000060 -17.549238 -37.627739 2.886032 139.999924
[Rope4_Seg07]
10 139.999802 0.000000 0.000000 -15.975768 -32.895214 12.326937 139.999802
11 139.999802 0.000000 0.000000 0.115363 -29.880943 -7.374350 139.999802
[Rope4_Seg08]
10 139.999924 0.000000 0.000119 -2.322482 -15.031983 -0.345499 139.999924
11 139.999924 0.000000 0.000119 -1.072094 -9.457025 -3.404000 139.999924
[Rope4_Seg09]
10 90.185791 0.000060 0.000060 -135.617828 2.228885 0.850567 90.185791
11 90.185791 0.000060 0.000060 -135.617828 2.228885 0.850567 90.185791
[L_rear_hand01]
10 101.696655 -8.392275 -7.654577 -31.051279 -24.449524 142.474380 102.329041
11 101.696655 -8.392275 -7.654577 -36.168262 -14.968047 157.523178 102.329041
[L_rear_hand02]
10 102.726799 -1.568258 5.773216 82.520493 40.398952 171.273941 102.900848
11 102.726799 -1.568258 5.773216 83.795876 23.490883 173.655762 102.900848
[L_rear_hand03]
10 104.552910 9.721220 -10.420293 -164.531235 -19.454706 -140.315262 105.519653
11 104.552910 9.721220 -10.420293 -159.600342 -14.172174 -157.235031 105.519653
